<svg width="926" height="201" viewBox="0 0 926 201" fill="none" xmlns="http://www.w3.org/2000/svg">
<path d="M917.579 80.9452C918.615 80.9452 919.188 80.4386 919.188 79.5986C919.188 78.6919 918.615 78.1852 917.579 78.1852H916.387V80.9452H917.579ZM916.387 85.9185H914.636V76.6785H917.834C919.63 76.6785 920.959 77.9452 920.959 79.5719C920.959 80.8519 920.135 81.9185 918.938 82.3052L921.008 85.9185H919.007L917.074 82.4652H916.387V85.9185ZM917.442 88.1986C921.122 88.1986 924.02 85.2253 924.02 81.3586C924.02 77.4919 921.122 74.5586 917.442 74.5586C913.763 74.5586 910.867 77.4919 910.867 81.3586C910.867 85.2253 913.763 88.1986 917.442 88.1986ZM917.442 72.8785C922.112 72.8785 925.88 76.6919 925.88 81.3586C925.88 86.0386 922.112 89.8652 917.442 89.8652C912.796 89.8652 909.072 86.0386 909.072 81.3586C909.072 76.6919 912.796 72.8785 917.442 72.8785Z" fill="#3B4C56"/>
<path d="M895.353 83.945H836.678V101.385H895.353V116.545H836.678V135.118H895.353V150.278H820.381V68.7984H895.353V83.945Z" fill="#3B4C56"/>
<path d="M777.564 99.6783C776.014 101.558 774.06 102.532 771.694 102.532H733.149V83.945H771.694C774.06 83.945 776.014 84.9317 777.564 86.8783C779.113 88.7583 779.846 90.8783 779.846 93.2383C779.846 95.5983 779.113 97.7183 777.564 99.6783ZM792.069 106.852C794.76 102.772 796.144 98.2117 796.144 93.2383C796.144 86.4784 793.781 80.7717 788.973 75.9584C784.246 71.1584 778.46 68.7984 771.694 68.7984H716.852V150.278H733.149V117.692H764.525L778.09 150.278H796.089L781.313 115.732C785.796 113.852 789.378 110.838 792.069 106.852Z" fill="#3B4C56"/>
<path d="M519.176 150.278H535.548L562.132 86.145L586.734 150.278H603.084L571.309 68.7984H553.402L519.176 150.278Z" fill="#3B4C56"/>
<path d="M651.216 98.865L626.326 68.7984H606.438L643.068 111.572V150.278H659.368V111.572L696.058 68.7984H676.035L651.216 98.865Z" fill="#3B4C56"/>
<path d="M442.172 150.278H504.491C505.164 150.278 505.711 149.732 505.711 149.065V136.345C505.711 135.678 505.163 135.118 504.487 135.118H458.469V68.7984H442.172V150.278Z" fill="#3B4C56"/>
<path d="M397.813 130.025C394.634 133.532 390.802 135.238 386.319 135.238H364.355C359.872 135.238 356.043 133.532 352.866 130.025C349.687 126.518 348.058 122.452 348.058 117.798V101.465C348.066 96.8384 349.691 92.7717 352.862 89.2784C356.04 85.7717 359.872 84.0651 364.355 84.0651H386.319C390.802 84.0651 394.63 85.7717 397.808 89.2784C400.987 92.7851 402.617 96.8651 402.617 101.505V117.838C402.609 122.465 400.982 126.532 397.813 130.025ZM409.381 78.4384C407.265 76.3584 405.002 74.6384 402.619 73.2384C397.752 70.3717 392.338 68.9051 386.319 68.9051H364.355C358.328 68.9051 352.906 70.385 348.058 73.2517C345.694 74.6517 343.456 76.3584 341.372 78.4384C334.936 84.8784 331.758 92.5451 331.758 101.505V117.798C331.758 126.772 334.936 134.425 341.292 140.865C343.41 142.958 345.671 144.665 348.055 146.065C352.92 148.932 358.336 150.398 364.355 150.398H386.319C392.346 150.398 397.769 148.932 402.617 146.052C404.981 144.652 407.218 142.945 409.302 140.865C415.738 134.425 418.917 126.772 418.917 117.798V101.505C418.917 92.5451 415.738 84.8784 409.381 78.4384Z" fill="#3B4C56"/>
<path d="M307.28 108.998C302.552 104.358 296.767 101.998 290.006 101.998H257.408C252.518 101.998 249.584 97.9184 249.584 93.1051C249.584 90.8251 250.318 88.785 251.702 86.9184C253.171 85.0384 255.043 84.0651 257.408 84.0651H313.163V68.9051H257.408C250.726 68.9051 245.02 71.4384 240.212 76.3984C235.404 81.3718 233.043 87.1584 233.043 93.5984C233.043 99.8784 235.404 105.412 240.212 110.145C245.02 114.785 250.806 117.145 257.408 117.145H290.006C292.367 117.145 294.324 118.052 295.871 119.918C297.503 121.798 298.316 123.918 298.316 126.358C298.316 128.718 297.503 130.758 295.871 132.558C294.324 134.345 292.367 135.238 290.006 135.238H234.251V150.398H290.006C297.095 150.398 302.96 147.878 307.526 142.825C312.088 137.772 314.371 131.892 314.371 125.305C314.371 119.025 312.008 113.652 307.28 108.998Z" fill="#3B4C56"/>
<mask id="mask0_31_3854" style="mask-type:luminance" maskUnits="userSpaceOnUse" x="153" y="25" width="23" height="23">
<path d="M172.777 28.3058C171.473 26.9991 169.832 26.2392 168.134 26.0258C165.177 25.6392 162.277 27.0924 160.593 29.5458L153.654 44.2791C152.238 46.3458 154.734 48.8392 156.804 47.4258L171.532 40.4791C173.992 38.7991 175.437 35.9058 175.058 32.9458C174.841 31.2524 174.08 29.5991 172.777 28.3058Z" fill="white"/>
</mask>
<g mask="url(#mask0_31_3854)">
<path d="M172.777 28.3058C171.473 26.9991 169.832 26.2392 168.134 26.0258C165.177 25.6392 162.277 27.0924 160.593 29.5458L153.654 44.2791C152.238 46.3458 154.734 48.8392 156.804 47.4258L171.532 40.4791C173.992 38.7991 175.437 35.9058 175.058 32.9458C174.841 31.2524 174.08 29.5991 172.777 28.3058Z" fill="url(#paint0_radial_31_3854)"/>
</g>
<mask id="mask1_31_3854" style="mask-type:luminance" maskUnits="userSpaceOnUse" x="121" y="51" width="29" height="30">
<path d="M147.404 53.6791C146.102 52.3725 144.46 51.6124 142.762 51.3858C139.804 51.0124 136.906 52.4524 135.222 54.9191L121.472 76.4524C120.055 78.5324 122.552 81.0258 124.621 79.6125L146.16 65.8524C148.62 64.1724 150.064 61.2791 149.687 58.3191C149.47 56.6124 148.708 54.9725 147.404 53.6791Z" fill="white"/>
</mask>
<g mask="url(#mask1_31_3854)">
<path d="M147.404 53.6791C146.102 52.3725 144.46 51.6124 142.762 51.3858C139.804 51.0124 136.906 52.4524 135.222 54.9191L121.472 76.4524C120.055 78.5324 122.552 81.0258 124.621 79.6125L146.16 65.8524C148.62 64.1724 150.064 61.2791 149.687 58.3191C149.47 56.6124 148.708 54.9725 147.404 53.6791Z" fill="url(#paint1_radial_31_3854)"/>
</g>
<mask id="mask2_31_3854" style="mask-type:luminance" maskUnits="userSpaceOnUse" x="141" y="69" width="40" height="22">
<path d="M179.52 74.759C180.171 76.4924 180.187 78.2923 179.684 79.9323C178.809 82.7857 176.297 84.8256 173.361 85.3456L143.855 90.5723C141.385 91.0123 140.14 87.7056 142.285 86.4123L167.908 70.8657C170.457 69.319 173.695 69.199 176.232 70.7723C177.689 71.6656 178.871 73.039 179.52 74.759Z" fill="white"/>
</mask>
<g mask="url(#mask2_31_3854)">
<path d="M179.52 74.759C180.171 76.4924 180.187 78.2923 179.684 79.9323C178.809 82.7857 176.297 84.8256 173.361 85.3456L143.855 90.5723C141.385 91.0123 140.14 87.7056 142.285 86.4123L167.908 70.8657C170.457 69.319 173.695 69.199 176.232 70.7723C177.689 71.6656 178.871 73.039 179.52 74.759Z" fill="url(#paint2_radial_31_3854)"/>
</g>
<mask id="mask3_31_3854" style="mask-type:luminance" maskUnits="userSpaceOnUse" x="122" y="0" width="23" height="39">
<path d="M139.598 0.598729C141.306 1.29206 142.643 2.50532 143.5 3.98532C144.996 6.57198 144.788 9.7987 143.174 12.3054L126.948 37.5054C125.59 39.612 122.321 38.2788 122.825 35.8254L128.849 6.46539C129.449 3.5454 131.561 1.09209 134.434 0.292088C136.083 -0.161245 137.891 -0.107938 139.598 0.598729Z" fill="white"/>
</mask>
<g mask="url(#mask3_31_3854)">
<path d="M139.598 0.598729C141.306 1.29206 142.643 2.50532 143.5 3.98532C144.996 6.57198 144.788 9.7987 143.174 12.3054L126.948 37.5054C125.59 39.612 122.321 38.2788 122.825 35.8254L128.849 6.46539C129.449 3.5454 131.561 1.09209 134.434 0.292088C136.083 -0.161245 137.891 -0.107938 139.598 0.598729Z" fill="url(#paint3_radial_31_3854)"/>
</g>
<mask id="mask4_31_3854" style="mask-type:luminance" maskUnits="userSpaceOnUse" x="24" y="43" width="23" height="23">
<path d="M26.6946 45.4924C25.391 46.7991 24.6306 48.4391 24.4134 50.1324C24.0348 53.0924 25.4796 55.9857 27.9394 57.679L42.6681 64.6124C44.7368 66.0257 47.2337 63.5324 45.8165 61.4657L38.8785 46.7324C37.1936 44.2791 34.2952 42.8257 31.3373 43.2124C29.64 43.4257 27.9982 44.1858 26.6946 45.4924Z" fill="white"/>
</mask>
<g mask="url(#mask4_31_3854)">
<path d="M26.6946 45.4924C25.391 46.7991 24.6306 48.4391 24.4134 50.1324C24.0348 53.0924 25.4796 55.9857 27.9394 57.679L42.6681 64.6124C44.7368 66.0257 47.2337 63.5324 45.8165 61.4657L38.8785 46.7324C37.1936 44.2791 34.2952 42.8257 31.3373 43.2124C29.64 43.4257 27.9982 44.1858 26.6946 45.4924Z" fill="url(#paint4_radial_31_3854)"/>
</g>
<mask id="mask5_31_3854" style="mask-type:luminance" maskUnits="userSpaceOnUse" x="49" y="68" width="30" height="30">
<path d="M52.0667 70.8656C50.7631 72.1722 50.0027 73.8122 49.7855 75.5055C49.4068 78.4655 50.8516 81.3588 53.3115 83.0521L74.8511 96.7989C76.9198 98.2122 79.4167 95.7188 77.9995 93.6521L64.2506 72.1055C62.5656 69.6522 59.6667 68.1988 56.7094 68.5855C55.012 68.7988 53.3703 69.5589 52.0667 70.8656Z" fill="white"/>
</mask>
<g mask="url(#mask5_31_3854)">
<path d="M52.0667 70.8656C50.7631 72.1722 50.0027 73.8122 49.7855 75.5055C49.4068 78.4655 50.8516 81.3588 53.3115 83.0521L74.8511 96.7989C76.9198 98.2122 79.4167 95.7188 77.9995 93.6521L64.2506 72.1055C62.5656 69.6522 59.6667 68.1988 56.7094 68.5855C55.012 68.7988 53.3703 69.5589 52.0667 70.8656Z" fill="url(#paint5_radial_31_3854)"/>
</g>
<mask id="mask6_31_3854" style="mask-type:luminance" maskUnits="userSpaceOnUse" x="83" y="54" width="16" height="42">
<path d="M91.0247 54.6257C92.8689 54.6257 94.5668 55.2523 95.9209 56.3056C98.2798 58.1189 99.308 61.1989 98.7595 64.1189L93.2512 93.5855C92.7903 96.0522 89.2595 96.0522 88.7985 93.5855L83.2897 64.1189C82.7417 61.1989 83.7699 58.1189 86.1288 56.3056C87.4824 55.2523 89.1808 54.6257 91.0247 54.6257Z" fill="white"/>
</mask>
<g mask="url(#mask6_31_3854)">
<path d="M91.0247 54.6257C92.8689 54.6257 94.5668 55.2523 95.9209 56.3056C98.2798 58.1189 99.308 61.1989 98.7595 64.1189L93.2512 93.5855C92.7903 96.0522 89.2595 96.0522 88.7985 93.5855L83.2897 64.1189C82.7417 61.1989 83.7699 58.1189 86.1288 56.3056C87.4824 55.2523 89.1808 54.6257 91.0247 54.6257Z" fill="url(#paint6_radial_31_3854)"/>
</g>
<mask id="mask7_31_3854" style="mask-type:luminance" maskUnits="userSpaceOnUse" x="83" y="18" width="16" height="28">
<path d="M91.0247 18.7986C92.8689 18.7986 94.5668 19.4253 95.9209 20.4653C98.2798 22.292 99.308 25.3587 98.7595 28.292L93.2512 43.6119C92.7903 46.0786 89.2595 46.0786 88.7985 43.6119L83.2897 28.292C82.7417 25.3587 83.7699 22.292 86.1288 20.4653C87.4824 19.4253 89.1808 18.7986 91.0247 18.7986Z" fill="white"/>
</mask>
<g mask="url(#mask7_31_3854)">
<path d="M91.0247 18.7986C92.8689 18.7986 94.5668 19.4253 95.9209 20.4653C98.2798 22.292 99.308 25.3587 98.7595 28.292L93.2512 43.6119C92.7903 46.0786 89.2595 46.0786 88.7985 43.6119L83.2897 28.292C82.7417 25.3587 83.7699 22.292 86.1288 20.4653C87.4824 19.4253 89.1808 18.7986 91.0247 18.7986Z" fill="url(#paint7_radial_31_3854)"/>
</g>
<mask id="mask8_31_3854" style="mask-type:luminance" maskUnits="userSpaceOnUse" x="50" y="21" width="22" height="39">
<path d="M55.965 21.5589C57.6906 20.9056 59.4989 20.8922 61.1354 21.3989C63.9854 22.2656 66.0302 24.7855 66.5505 27.7188L71.7791 57.2256C72.2166 59.6923 68.9125 60.9322 67.6119 58.7989L52.0739 33.1722C50.5275 30.6255 50.4067 27.3855 51.9713 24.8522C52.8698 23.3855 54.2395 22.2123 55.965 21.5589Z" fill="white"/>
</mask>
<g mask="url(#mask8_31_3854)">
<path d="M55.965 21.5589C57.6906 20.9056 59.4989 20.8922 61.1354 21.3989C63.9854 22.2656 66.0302 24.7855 66.5505 27.7188L71.7791 57.2256C72.2166 59.6923 68.9125 60.9322 67.6119 58.7989L52.0739 33.1722C50.5275 30.6255 50.4067 27.3855 51.9713 24.8522C52.8698 23.3855 54.2395 22.2123 55.965 21.5589Z" fill="url(#paint8_radial_31_3854)"/>
</g>
<mask id="mask9_31_3854" style="mask-type:luminance" maskUnits="userSpaceOnUse" x="3" y="67" width="39" height="24">
<path d="M4.58866 72.4387C5.35376 70.7587 6.62511 69.4654 8.1397 68.6654C10.7777 67.2787 13.9985 67.6254 16.4376 69.3321L40.9517 86.572C43.0027 88.012 41.5376 91.2254 39.1037 90.6254L10.0178 83.412C7.12407 82.692 4.75584 80.4787 4.07563 77.5853C3.68552 75.9187 3.82355 74.1054 4.58866 72.4387Z" fill="white"/>
</mask>
<g mask="url(#mask9_31_3854)">
<path d="M4.58866 72.4387C5.35376 70.7587 6.62511 69.4654 8.1397 68.6654C10.7777 67.2787 13.9985 67.6254 16.4376 69.3321L40.9517 86.572C43.0027 88.012 41.5376 91.2254 39.1037 90.6254L10.0178 83.412C7.12407 82.692 4.75584 80.4787 4.07563 77.5853C3.68552 75.9187 3.82355 74.1054 4.58866 72.4387Z" fill="url(#paint9_radial_31_3854)"/>
</g>
<mask id="mask10_31_3854" style="mask-type:luminance" maskUnits="userSpaceOnUse" x="136" y="154" width="22" height="23">
<path d="M155.587 174.225C154.283 175.532 152.641 176.292 150.944 176.505C147.987 176.892 145.087 175.439 143.403 172.985L136.464 158.252C135.048 156.185 137.544 153.692 139.613 155.105L154.341 162.039C156.801 163.732 158.247 166.625 157.868 169.585C157.651 171.279 156.889 172.919 155.587 174.225Z" fill="white"/>
</mask>
<g mask="url(#mask10_31_3854)">
<path d="M155.587 174.225C154.283 175.532 152.641 176.292 150.944 176.505C147.987 176.892 145.087 175.439 143.403 172.985L136.464 158.252C135.048 156.185 137.544 153.692 139.613 155.105L154.341 162.039C156.801 163.732 158.247 166.625 157.868 169.585C157.651 171.279 156.889 172.919 155.587 174.225Z" fill="url(#paint10_radial_31_3854)"/>
</g>
<mask id="mask11_31_3854" style="mask-type:luminance" maskUnits="userSpaceOnUse" x="103" y="122" width="30" height="30">
<path d="M130.214 148.852C128.909 150.159 127.268 150.919 125.571 151.132C122.613 151.519 119.715 150.066 118.03 147.612L104.281 126.066C102.864 123.999 105.36 121.506 107.429 122.919L128.968 136.666C131.429 138.359 132.874 141.252 132.495 144.212C132.278 145.906 131.517 147.546 130.214 148.852Z" fill="white"/>
</mask>
<g mask="url(#mask11_31_3854)">
<path d="M130.214 148.852C128.909 150.159 127.268 150.919 125.571 151.132C122.613 151.519 119.715 150.066 118.03 147.612L104.281 126.066C102.864 123.999 105.36 121.506 107.429 122.919L128.968 136.666C131.429 138.359 132.874 141.252 132.495 144.212C132.278 145.906 131.517 147.546 130.214 148.852Z" fill="url(#paint11_radial_31_3854)"/>
</g>
<mask id="mask12_31_3854" style="mask-type:luminance" maskUnits="userSpaceOnUse" x="105" y="102" width="42" height="16">
<path d="M146.448 109.893C146.448 108.053 145.825 106.359 144.779 104.999C142.955 102.639 139.883 101.613 136.952 102.159L107.496 107.666C105.031 108.133 105.031 111.666 107.496 112.119L136.952 117.626C139.883 118.186 142.955 117.146 144.779 114.786C145.825 113.439 146.448 111.746 146.448 109.893Z" fill="white"/>
</mask>
<g mask="url(#mask12_31_3854)">
<path d="M146.448 109.893C146.448 108.053 145.825 106.359 144.779 104.999C142.955 102.639 139.883 101.613 136.952 102.159L107.496 107.666C105.031 108.133 105.031 111.666 107.496 112.119L136.952 117.626C139.883 118.186 142.955 117.146 144.779 114.786C145.825 113.439 146.448 111.746 146.448 109.893Z" fill="url(#paint12_radial_31_3854)"/>
</g>
<mask id="mask13_31_3854" style="mask-type:luminance" maskUnits="userSpaceOnUse" x="155" y="102" width="28" height="16">
<path d="M182.28 109.893C182.28 108.053 181.658 106.359 180.611 104.999C178.788 102.639 175.716 101.613 172.786 102.159L157.464 107.666C155 108.133 155 111.666 157.464 112.119L172.786 117.626C175.716 118.186 178.788 117.146 180.611 114.786C181.658 113.439 182.28 111.746 182.28 109.893Z" fill="white"/>
</mask>
<g mask="url(#mask13_31_3854)">
<path d="M182.28 109.893C182.28 108.053 181.658 106.359 180.611 104.999C178.788 102.639 175.716 101.613 172.786 102.159L157.464 107.666C155 108.133 155 111.666 157.464 112.119L172.786 117.626C175.716 118.186 178.788 117.146 180.611 114.786C181.658 113.439 182.28 111.746 182.28 109.893Z" fill="url(#paint13_radial_31_3854)"/>
</g>
<mask id="mask14_31_3854" style="mask-type:luminance" maskUnits="userSpaceOnUse" x="141" y="129" width="40" height="22">
<path d="M179.52 144.959C180.171 143.226 180.187 141.426 179.684 139.786C178.809 136.932 176.297 134.892 173.361 134.372L143.855 129.146C141.385 128.706 140.14 132.012 142.285 133.306L167.908 148.852C170.457 150.399 173.695 150.519 176.232 148.946C177.689 148.052 178.871 146.679 179.52 144.959Z" fill="white"/>
</mask>
<g mask="url(#mask14_31_3854)">
<path d="M179.52 144.959C180.171 143.226 180.187 141.426 179.684 139.786C178.809 136.932 176.297 134.892 173.361 134.372L143.855 129.146C141.385 128.706 140.14 132.012 142.285 133.306L167.908 148.852C170.457 150.399 173.695 150.519 176.232 148.946C177.689 148.052 178.871 146.679 179.52 144.959Z" fill="url(#paint14_radial_31_3854)"/>
</g>
<mask id="mask15_31_3854" style="mask-type:luminance" maskUnits="userSpaceOnUse" x="110" y="158" width="24" height="40">
<path d="M128.644 196.332C130.322 195.572 131.609 194.292 132.406 192.785C133.796 190.145 133.456 186.919 131.741 184.479L114.505 159.972C113.063 157.919 109.85 159.385 110.453 161.812L117.666 190.905C118.384 193.799 120.594 196.159 123.497 196.852C125.163 197.239 126.967 197.092 128.644 196.332Z" fill="white"/>
</mask>
<g mask="url(#mask15_31_3854)">
<path d="M128.644 196.332C130.322 195.572 131.609 194.292 132.406 192.785C133.796 190.145 133.456 186.919 131.741 184.479L114.505 159.972C113.063 157.919 109.85 159.385 110.453 161.812L117.666 190.905C118.384 193.799 120.594 196.159 123.497 196.852C125.163 197.239 126.967 197.092 128.644 196.332Z" fill="url(#paint15_radial_31_3854)"/>
</g>
<mask id="mask16_31_3854" style="mask-type:luminance" maskUnits="userSpaceOnUse" x="24" y="154" width="23" height="23">
<path d="M26.6946 174.225C25.391 172.919 24.6306 171.279 24.4134 169.585C24.0348 166.625 25.4796 163.732 27.9394 162.039L42.6681 155.105C44.7368 153.692 47.2337 156.185 45.8165 158.252L38.8785 172.985C37.1936 175.439 34.2952 176.892 31.3373 176.505C29.64 176.292 27.9982 175.532 26.6946 174.225Z" fill="white"/>
</mask>
<g mask="url(#mask16_31_3854)">
<path d="M26.6946 174.225C25.391 172.919 24.6306 171.279 24.4134 169.585C24.0348 166.625 25.4796 163.732 27.9394 162.039L42.6681 155.105C44.7368 153.692 47.2337 156.185 45.8165 158.252L38.8785 172.985C37.1936 175.439 34.2952 176.892 31.3373 176.505C29.64 176.292 27.9982 175.532 26.6946 174.225Z" fill="url(#paint16_radial_31_3854)"/>
</g>
<mask id="mask17_31_3854" style="mask-type:luminance" maskUnits="userSpaceOnUse" x="49" y="122" width="30" height="30">
<path d="M52.0667 148.852C50.7631 147.546 50.0027 145.906 49.7855 144.212C49.4068 141.252 50.8516 138.359 53.3115 136.666L74.8511 122.919C76.9198 121.506 79.4167 123.999 77.9995 126.066L64.2506 147.612C62.5656 150.066 59.6667 151.519 56.7094 151.132C55.012 150.919 53.3703 150.159 52.0667 148.852Z" fill="white"/>
</mask>
<g mask="url(#mask17_31_3854)">
<path d="M52.0667 148.852C50.7631 147.546 50.0027 145.906 49.7855 144.212C49.4068 141.252 50.8516 138.359 53.3115 136.666L74.8511 122.919C76.9198 121.506 79.4167 123.999 77.9995 126.066L64.2506 147.612C62.5656 150.066 59.6667 151.519 56.7094 151.132C55.012 150.919 53.3703 150.159 52.0667 148.852Z" fill="url(#paint17_radial_31_3854)"/>
</g>
<mask id="mask18_31_3854" style="mask-type:luminance" maskUnits="userSpaceOnUse" x="35" y="101" width="42" height="17">
<path d="M35.833 109.785C35.833 107.932 36.4559 106.238 37.5029 104.878C39.3262 102.518 42.3975 101.492 45.3289 102.052L74.7846 107.558C77.2491 108.012 77.2491 111.545 74.7846 112.012L45.3289 117.518C42.3975 118.065 39.3262 117.038 37.5029 114.678C36.4559 113.318 35.833 111.625 35.833 109.785Z" fill="white"/>
</mask>
<g mask="url(#mask18_31_3854)">
<path d="M35.833 109.785C35.833 107.932 36.4559 106.238 37.5029 104.878C39.3262 102.518 42.3975 101.492 45.3289 102.052L74.7846 107.558C77.2491 108.012 77.2491 111.545 74.7846 112.012L45.3289 117.518C42.3975 118.065 39.3262 117.038 37.5029 114.678C36.4559 113.318 35.833 111.625 35.833 109.785Z" fill="url(#paint18_radial_31_3854)"/>
</g>
<mask id="mask19_31_3854" style="mask-type:luminance" maskUnits="userSpaceOnUse" x="0" y="101" width="27" height="17">
<path d="M0 109.785C0 107.932 0.622917 106.238 1.66927 104.878C3.49323 102.518 6.56459 101.492 9.49531 102.052L24.8161 107.558C27.2807 108.012 27.2807 111.545 24.8161 112.012L9.49531 117.518C6.56459 118.065 3.49323 117.038 1.66927 114.678C0.622917 113.318 0 111.625 0 109.785Z" fill="white"/>
</mask>
<g mask="url(#mask19_31_3854)">
<path d="M0 109.785C0 107.932 0.622917 106.238 1.66927 104.878C3.49323 102.518 6.56459 101.492 9.49531 102.052L24.8161 107.558C27.2807 108.012 27.2807 111.545 24.8161 112.012L9.49531 117.518C6.56459 118.065 3.49323 117.038 1.66927 114.678C0.622917 113.318 0 111.625 0 109.785Z" fill="url(#paint19_radial_31_3854)"/>
</g>
<mask id="mask20_31_3854" style="mask-type:luminance" maskUnits="userSpaceOnUse" x="83" y="124" width="16" height="42">
<path d="M91.0247 165.092C92.8689 165.092 94.5668 164.465 95.9209 163.412C98.2798 161.598 99.308 158.518 98.7595 155.585L93.2512 126.132C92.7903 123.665 89.2595 123.665 88.7985 126.132L83.2897 155.585C82.7417 158.518 83.7699 161.598 86.1288 163.412C87.4824 164.465 89.1808 165.092 91.0247 165.092Z" fill="white"/>
</mask>
<g mask="url(#mask20_31_3854)">
<path d="M91.0247 165.092C92.8689 165.092 94.5668 164.465 95.9209 163.412C98.2798 161.598 99.308 158.518 98.7595 155.585L93.2512 126.132C92.7903 123.665 89.2595 123.665 88.7985 126.132L83.2897 155.585C82.7417 158.518 83.7699 161.598 86.1288 163.412C87.4824 164.465 89.1808 165.092 91.0247 165.092Z" fill="url(#paint20_radial_31_3854)"/>
</g>
<mask id="mask21_31_3854" style="mask-type:luminance" maskUnits="userSpaceOnUse" x="83" y="174" width="16" height="27">
<path d="M91.0247 200.919C92.8689 200.919 94.5668 200.292 95.9209 199.252C98.2798 197.426 99.308 194.359 98.7595 191.426L93.2512 176.106C92.7903 173.639 89.2595 173.639 88.7985 176.106L83.2897 191.426C82.7417 194.359 83.7699 197.426 86.1288 199.252C87.4824 200.292 89.1808 200.919 91.0247 200.919Z" fill="white"/>
</mask>
<g mask="url(#mask21_31_3854)">
<path d="M91.0247 200.919C92.8689 200.919 94.5668 200.292 95.9209 199.252C98.2798 197.426 99.308 194.359 98.7595 191.426L93.2512 176.106C92.7903 173.639 89.2595 173.639 88.7985 176.106L83.2897 191.426C82.7417 194.359 83.7699 197.426 86.1288 199.252C87.4824 200.292 89.1808 200.919 91.0247 200.919Z" fill="url(#paint21_radial_31_3854)"/>
</g>
<mask id="mask22_31_3854" style="mask-type:luminance" maskUnits="userSpaceOnUse" x="83" y="101" width="17" height="17">
<path d="M91.0247 101.772C86.5996 101.772 83.0127 105.359 83.0127 109.785C83.0127 114.199 86.5996 117.799 91.0247 117.799C95.4502 117.799 99.0371 114.199 99.0371 109.785C99.0371 105.359 95.4502 101.772 91.0247 101.772Z" fill="white"/>
</mask>
<g mask="url(#mask22_31_3854)">
<path d="M91.0247 101.772C86.5996 101.772 83.0127 105.359 83.0127 109.785C83.0127 114.199 86.5996 117.799 91.0247 117.799C95.4502 117.799 99.0371 114.199 99.0371 109.785C99.0371 105.359 95.4502 101.772 91.0247 101.772Z" fill="url(#paint22_radial_31_3854)"/>
</g>
<mask id="mask23_31_3854" style="mask-type:luminance" maskUnits="userSpaceOnUse" x="50" y="159" width="22" height="40">
<path d="M55.965 198.158C57.6906 198.812 59.4989 198.825 61.1354 198.318C63.9854 197.452 66.0302 194.932 66.5505 191.998L71.7791 162.492C72.2166 160.025 68.9125 158.785 67.6119 160.918L52.0739 186.545C50.5275 189.092 50.4067 192.332 51.9713 194.878C52.8698 196.332 54.2395 197.505 55.965 198.158Z" fill="white"/>
</mask>
<g mask="url(#mask23_31_3854)">
<path d="M55.965 198.158C57.6906 198.812 59.4989 198.825 61.1354 198.318C63.9854 197.452 66.0302 194.932 66.5505 191.998L71.7791 162.492C72.2166 160.025 68.9125 158.785 67.6119 160.918L52.0739 186.545C50.5275 189.092 50.4067 192.332 51.9713 194.878C52.8698 196.332 54.2395 197.505 55.965 198.158Z" fill="url(#paint23_radial_31_3854)"/>
</g>
<mask id="mask24_31_3854" style="mask-type:luminance" maskUnits="userSpaceOnUse" x="3" y="129" width="39" height="23">
<path d="M4.58866 147.278C5.35376 148.958 6.62511 150.252 8.1397 151.052C10.7777 152.438 13.9985 152.092 16.4376 150.385L40.9517 133.145C43.0027 131.705 41.5376 128.492 39.1037 129.092L10.0178 136.305C7.12407 137.025 4.75584 139.238 4.07563 142.132C3.68552 143.798 3.82355 145.612 4.58866 147.278Z" fill="white"/>
</mask>
<g mask="url(#mask24_31_3854)">
<path d="M4.58866 147.278C5.35376 148.958 6.62511 150.252 8.1397 151.052C10.7777 152.438 13.9985 152.092 16.4376 150.385L40.9517 133.145C43.0027 131.705 41.5376 128.492 39.1037 129.092L10.0178 136.305C7.12407 137.025 4.75584 139.238 4.07563 142.132C3.68552 143.798 3.82355 145.612 4.58866 147.278Z" fill="url(#paint24_radial_31_3854)"/>
</g>
<defs>
<radialGradient id="paint0_radial_31_3854" cx="0" cy="0" r="1" gradientUnits="userSpaceOnUse" gradientTransform="translate(90.935 110.812) rotate(-20.799) scale(125.52 125.52)">
<stop stop-color="#F0402E"/>
<stop offset="1" stop-color="#F9A819"/>
</radialGradient>
<radialGradient id="paint1_radial_31_3854" cx="0" cy="0" r="1" gradientUnits="userSpaceOnUse" gradientTransform="translate(90.9356 110.812) rotate(-20.7991) scale(125.52 125.52)">
<stop stop-color="#F0402E"/>
<stop offset="1" stop-color="#F9A819"/>
</radialGradient>
<radialGradient id="paint2_radial_31_3854" cx="0" cy="0" r="1" gradientUnits="userSpaceOnUse" gradientTransform="translate(90.9354 110.812) rotate(-20.799) scale(125.52 125.52)">
<stop stop-color="#F0402E"/>
<stop offset="1" stop-color="#F9A819"/>
</radialGradient>
<radialGradient id="paint3_radial_31_3854" cx="0" cy="0" r="1" gradientUnits="userSpaceOnUse" gradientTransform="translate(90.9356 110.812) rotate(-20.799) scale(125.52 125.52)">
<stop stop-color="#F0402E"/>
<stop offset="1" stop-color="#F9A819"/>
</radialGradient>
<radialGradient id="paint4_radial_31_3854" cx="0" cy="0" r="1" gradientUnits="userSpaceOnUse" gradientTransform="translate(90.9357 110.812) rotate(-20.799) scale(125.52 125.52)">
<stop stop-color="#F0402E"/>
<stop offset="1" stop-color="#F9A819"/>
</radialGradient>
<radialGradient id="paint5_radial_31_3854" cx="0" cy="0" r="1" gradientTransform="matrix(117.34 -44.571 44.5709 117.34 90.9354 110.812)" gradientUnits="userSpaceOnUse">
<stop stop-color="#F0402E"/>
<stop offset="1" stop-color="#F9A819"/>
</radialGradient>
<radialGradient id="paint6_radial_31_3854" cx="0" cy="0" r="1" gradientTransform="matrix(117.34 -44.5708 44.5709 117.339 90.9349 110.812)" gradientUnits="userSpaceOnUse">
<stop stop-color="#F0402E"/>
<stop offset="1" stop-color="#F9A819"/>
</radialGradient>
<radialGradient id="paint7_radial_31_3854" cx="0" cy="0" r="1" gradientTransform="matrix(117.34 -44.5708 44.5709 117.339 90.9349 110.812)" gradientUnits="userSpaceOnUse">
<stop stop-color="#F0402E"/>
<stop offset="1" stop-color="#F9A819"/>
</radialGradient>
<radialGradient id="paint8_radial_31_3854" cx="0" cy="0" r="1" gradientUnits="userSpaceOnUse" gradientTransform="translate(90.9358 110.812) rotate(-20.799) scale(125.52 125.52)">
<stop stop-color="#F0402E"/>
<stop offset="1" stop-color="#F9A819"/>
</radialGradient>
<radialGradient id="paint9_radial_31_3854" cx="0" cy="0" r="1" gradientUnits="userSpaceOnUse" gradientTransform="translate(90.9349 110.812) rotate(-20.7991) scale(125.52 125.52)">
<stop stop-color="#F0402E"/>
<stop offset="1" stop-color="#F9A819"/>
</radialGradient>
<radialGradient id="paint10_radial_31_3854" cx="0" cy="0" r="1" gradientUnits="userSpaceOnUse" gradientTransform="translate(90.9352 110.812) rotate(-20.799) scale(125.52 125.52)">
<stop stop-color="#F0402E"/>
<stop offset="1" stop-color="#F9A819"/>
</radialGradient>
<radialGradient id="paint11_radial_31_3854" cx="0" cy="0" r="1" gradientTransform="matrix(117.34 -44.571 44.5709 117.34 90.9349 110.812)" gradientUnits="userSpaceOnUse">
<stop stop-color="#F0402E"/>
<stop offset="1" stop-color="#F9A819"/>
</radialGradient>
<radialGradient id="paint12_radial_31_3854" cx="0" cy="0" r="1" gradientUnits="userSpaceOnUse" gradientTransform="translate(90.9353 110.813) rotate(-20.799) scale(125.52 125.52)">
<stop stop-color="#F0402E"/>
<stop offset="1" stop-color="#F9A819"/>
</radialGradient>
<radialGradient id="paint13_radial_31_3854" cx="0" cy="0" r="1" gradientUnits="userSpaceOnUse" gradientTransform="translate(90.9355 110.813) rotate(-20.799) scale(125.52 125.52)">
<stop stop-color="#F0402E"/>
<stop offset="1" stop-color="#F9A819"/>
</radialGradient>
<radialGradient id="paint14_radial_31_3854" cx="0" cy="0" r="1" gradientUnits="userSpaceOnUse" gradientTransform="translate(90.9354 110.812) rotate(-20.799) scale(125.52 125.52)">
<stop stop-color="#F0402E"/>
<stop offset="1" stop-color="#F9A819"/>
</radialGradient>
<radialGradient id="paint15_radial_31_3854" cx="0" cy="0" r="1" gradientUnits="userSpaceOnUse" gradientTransform="translate(90.9352 110.812) rotate(-20.799) scale(125.52 125.52)">
<stop stop-color="#F0402E"/>
<stop offset="1" stop-color="#F9A819"/>
</radialGradient>
<radialGradient id="paint16_radial_31_3854" cx="0" cy="0" r="1" gradientUnits="userSpaceOnUse" gradientTransform="translate(90.9357 110.812) rotate(-20.799) scale(125.52 125.52)">
<stop stop-color="#F0402E"/>
<stop offset="1" stop-color="#F9A819"/>
</radialGradient>
<radialGradient id="paint17_radial_31_3854" cx="0" cy="0" r="1" gradientTransform="matrix(117.34 -44.571 44.5709 117.34 90.9354 110.812)" gradientUnits="userSpaceOnUse">
<stop stop-color="#F0402E"/>
<stop offset="1" stop-color="#F9A819"/>
</radialGradient>
<radialGradient id="paint18_radial_31_3854" cx="0" cy="0" r="1" gradientUnits="userSpaceOnUse" gradientTransform="translate(90.9355 110.812) rotate(-20.799) scale(125.52 125.52)">
<stop stop-color="#F0402E"/>
<stop offset="1" stop-color="#F9A819"/>
</radialGradient>
<radialGradient id="paint19_radial_31_3854" cx="0" cy="0" r="1" gradientUnits="userSpaceOnUse" gradientTransform="translate(90.9353 110.812) rotate(-20.799) scale(125.52 125.52)">
<stop stop-color="#F0402E"/>
<stop offset="1" stop-color="#F9A819"/>
</radialGradient>
<radialGradient id="paint20_radial_31_3854" cx="0" cy="0" r="1" gradientUnits="userSpaceOnUse" gradientTransform="translate(90.9349 110.812) rotate(-20.7991) scale(125.52 125.52)">
<stop stop-color="#F0402E"/>
<stop offset="1" stop-color="#F9A819"/>
</radialGradient>
<radialGradient id="paint21_radial_31_3854" cx="0" cy="0" r="1" gradientTransform="matrix(117.34 -44.5708 44.5709 117.339 90.9349 110.812)" gradientUnits="userSpaceOnUse">
<stop stop-color="#F0402E"/>
<stop offset="1" stop-color="#F9A819"/>
</radialGradient>
<radialGradient id="paint22_radial_31_3854" cx="0" cy="0" r="1" gradientTransform="matrix(117.34 -44.571 44.5709 117.34 90.935 110.812)" gradientUnits="userSpaceOnUse">
<stop stop-color="#F0402E"/>
<stop offset="1" stop-color="#F9A819"/>
</radialGradient>
<radialGradient id="paint23_radial_31_3854" cx="0" cy="0" r="1" gradientUnits="userSpaceOnUse" gradientTransform="translate(90.9358 110.812) rotate(-20.799) scale(125.52 125.52)">
<stop stop-color="#F0402E"/>
<stop offset="1" stop-color="#F9A819"/>
</radialGradient>
<radialGradient id="paint24_radial_31_3854" cx="0" cy="0" r="1" gradientTransform="matrix(117.34 -44.5707 44.5709 117.339 90.9349 110.812)" gradientUnits="userSpaceOnUse">
<stop stop-color="#F0402E"/>
<stop offset="1" stop-color="#F9A819"/>
</radialGradient>
</defs>
</svg>
